# xmcd
#
# Track frame offsets: 
#        150
#        15330
#        31902
#        43637
#        57780
#        72225
#        92257
#        106630
#        119230
#        131777
#        145357
#        157750
#        171335
#        186582
#
# Disc length: 2653 seconds
#
# Revision: 0
# Processed by: cddbd v1.5.1PL2 Copyright (c) Steve Scherf et al.
# Submitted via: ExactAudioCopy v0.95b3
#
DISCID=ba0a5b0e
DTITLE=Jon Sholle - Out of the Frying Pan
DYEAR=1997
DGENRE=Bluegrass
TTITLE0=Durham's Bull
TTITLE1=Jon's Jump
TTITLE2=Pike County Breakdown
TTITLE3=Golden Slippers
TTITLE4=Sweet Sue (Just You)
TTITLE5=Red Wing
TTITLE6=Farewell Blues
TTITLE7=Hunza Guitar Boogie
TTITLE8=8th of January
TTITLE9=Woody's Rag
TTITLE10=Banks of the Ohio
TTITLE11=Put On Your Old Grey Bonnet 
TTITLE12="D" Medley
TTITLE13=Corrina
EXTD=
EXTT0=
EXTT1=
EXTT2=
EXTT3=
EXTT4=
EXTT5=
EXTT6=
EXTT7=
EXTT8=
EXTT9=
EXTT10=
EXTT11=
EXTT12=
EXTT13=
PLAYORDER=
